{"title":"Naruto Shippuden Episode 153 - English Dubbed [Jazz_Singh]","uid":7661393,"size":44235948,"categoryP":"video","categoryS":"tv_shows","magnet":"?xt=urn:btih:efcef81c317b2642848c693587bb0bb2a13f1f98&amp;dn=Naruto+Shippuden+Episode+153+-+English+Dubbed+%5BJazz_Singh%5D&amp;tr=udp%3A%2F%2Ftracker.openbittorrent.com%3A80&amp;tr=udp%3A%2F%2Fopen.demonii.com%3A1337&amp;tr=udp%3A%2F%2Ftracker.coppersurfer.tk%3A6969&amp;tr=udp%3A%2F%2Fexodus.desync.com%3A6969","seeders":0,"leechers":0,"uploader":"jazzsingh","files":10,"time":1348314715,"description":"\nimage\n\nNaruto Shippuden Episode 153\n\nTitle: Following the Master's Shadow\n\nAudio language : English\n\n\nGeneral\n\nFormat : MPEG-4\nFormat profile : Base Media\nCodec ID : isom\nFile size : 42.2 MiB\nDuration : 23mn 24s\nOverall bit rate mode : Variable\nOverall bit rate : 252 Kbps\nEncoded date : UTC 2012-09-21 16:29:08\nTagged date : UTC 2012-09-21 16:29:08\n\nVideo\n\nFormat : AVC\nFormat/Info : Advanced Video Codec\nFormat profile : &lt;a class=&quot;__cf_email__&quot; href=&quot;/cdn-cgi/l/email-protection&quot; data-cfemail=&quot;c38baaa4ab838ff7edf2&quot;&gt;[email&amp;#160;protected]&lt;/a&gt;&lt;script cf-hash='f9e31' type=&quot;text/javascript&quot;&gt;\n/* &lt;![CDATA[ */!function(){try{var t=&quot;currentScript&quot;in document?document.currentScript:function(){for(var t=document.getElementsByTagName(&quot;script&quot;),e=t.length;e--;)if(t[e].getAttribute(&quot;cf-hash&quot;))return t[e]}();if(t&amp;&amp;t.previousSibling){var e,r,n,i,c=t.previousSibling,a=c.getAttribute(&quot;data-cfemail&quot;);if(a){for(e=&quot;&quot;,r=parseInt(a.substr(0,2),16),n=2;a.length-n;n+=2)i=parseInt(a.substr(n,2),16)^r,e+=String.fromCharCode(i);e=document.createTextNode(e),c.parentNode.replaceChild(e,c)}}}catch(u){}}();/* ]]&gt; */&lt;/script&gt;\nFormat settings, CABAC : Yes\nFormat settings, ReFrames : 10 frames\nCodec ID : avc1\nCodec ID/Info : Advanced Video Coding\nDuration : 23mn 24s\nBit rate : 201 Kbps\nMaximum bit rate : 1 163 Kbps\nWidth : 580 pixels\nHeight : 320 pixels\nDisplay aspect ratio : 16:9\nOriginal display aspect ratio : 16:9\nFrame rate mode : Constant\nFrame rate : 23.976 fps\nColor space : YUV\nChroma subsampling : 4:2:0\nBit depth : 8 bits\nScan type : Progressive\nBits/(Pixel*Frame) : 0.045\nStream size : 33.7 MiB (80%)\nWriting library : x264 core 125 r2200 999b753\n\nAudio\n\nFormat : AAC\nFormat/Info : Advanced Audio Codec\nFormat profile : HE-AAC / LC\nCodec ID : 40\nDuration : 23mn 24s\nBit rate mode : Variable\nBit rate : 48.0 Kbps\nMaximum bit rate : 76.0 Kbps\nChannel(s) : 2 channels\nChannel positions : Front: L R\nSampling rate : 44.1 KHz / 22.05 KHz\nCompression mode : Lossy\nStream size : 8.04 MiB (19%)\nLanguage : English\nEncoded date : UTC 2012-09-21 16:29:09\nTagged date : UTC 2012-09-21 16:29:09","torrent":{"xt":"urn:btih:efcef81c317b2642848c693587bb0bb2a13f1f98","amp;dn":"Naruto+Shippuden+Episode+153+-+English+Dubbed+%5BJazz_Singh%5D","amp;tr":["udp%3A%2F%2Ftracker.openbittorrent.com%3A80","udp%3A%2F%2Fopen.demonii.com%3A1337","udp%3A%2F%2Ftracker.coppersurfer.tk%3A6969","udp%3A%2F%2Fexodus.desync.com%3A6969"],"infoHash":"efcef81c317b2642848c693587bb0bb2a13f1f98","infoHashBuffer":{"type":"Buffer","data":[239,206,248,28,49,123,38,66,132,140,105,53,135,187,11,178,161,63,31,152]},"announce":[],"urlList":[]}}